<svg xmlns="http://www.w3.org/2000/svg" xmlns:xlink="http://www.w3.org/1999/xlink" contentStyleType="text/css" data-diagram-type="DESCRIPTION" height="577px" preserveAspectRatio="none" style="width:946px;height:577px;background:#FFFFFF;" version="1.1" viewBox="0 0 946 577" width="946px" zoomAndPan="magnify"><?plantuml 1.2026.3beta6?><defs/><g><g class="title" data-source-line="3"><text fill="#000000" font-family="sans-serif" font-size="14" font-weight="700" lengthAdjust="spacing" textLength="440.2344" x="249.3828" y="22.9951">&#1048;&#1085;&#1090;&#1077;&#1075;&#1088;&#1072;&#1094;&#1080;&#1103;: &#1087;&#1088;&#1103;&#1084;&#1086;&#1081; MySQL, REST 1&#1057;, &#1084;&#1080;&#1082;&#1088;&#1086;&#1089;&#1077;&#1088;&#1074;&#1080;&#1089; Go</text><text fill="#000000" font-family="sans-serif" font-size="14" font-weight="700" lengthAdjust="spacing" textLength="355.373" x="291.8135" y="39.292">(&#1086;&#1073;&#1093;&#1086;&#1076; &#1090;&#1086;&#1083;&#1089;&#1090;&#1086;&#1075;&#1086; &#1082;&#1083;&#1080;&#1077;&#1085;&#1090;&#1072; 1&#1057;) &#8212; 1. &#1050;&#1090;&#1086; &#1089; &#1082;&#1077;&#1084;</text></g><!--cluster P1C--><g class="cluster" data-qualified-name="P1C" data-source-line="5" id="ent0002"><rect fill="#E8F4FF" height="228.89" rx="2.5" ry="2.5" style="stroke:#181818;stroke-width:1;" width="426" x="506" y="60.5938"/><text fill="#000000" font-family="sans-serif" font-size="14" font-weight="700" lengthAdjust="spacing" textLength="118.8428" x="659.5786" y="75.5889">&#1055;&#1083;&#1072;&#1090;&#1092;&#1086;&#1088;&#1084;&#1072; 1&#1057;</text></g><!--cluster dbhost--><g class="cluster" data-qualified-name="dbhost" data-source-line="13" id="ent0008"><polygon fill="#FFF8E8" points="16,323.4838,26,313.4838,280,313.4838,280,542.6438,270,552.6438,16,552.6438,16,323.4838" style="stroke:#181818;stroke-width:1;"/><line style="stroke:#181818;stroke-width:1;" x1="270" x2="280" y1="323.4838" y2="313.4838"/><line style="stroke:#181818;stroke-width:1;" x1="16" x2="270" y1="323.4838" y2="323.4838"/><line style="stroke:#181818;stroke-width:1;" x1="270" x2="270" y1="323.4838" y2="552.6438"/><text fill="#000000" font-family="sans-serif" font-size="14" font-weight="700" lengthAdjust="spacing" textLength="167.665" x="60.1675" y="339.4789">&#1042;&#1052; / &#1089;&#1077;&#1088;&#1074;&#1077;&#1088; &#1089; MySQL</text></g><!--cluster goapp--><g class="cluster" data-qualified-name="goapp" data-source-line="19" id="ent0012"><path d="M306.5,189.5438 L438.6611,189.5438 A3.75,3.75 0 0 1 441.1611,192.0438 L448.1611,211.8406 L479.5,211.8406 A2.5,2.5 0 0 1 482,214.3406 L482,411.4338 A2.5,2.5 0 0 1 479.5,413.9338 L306.5,413.9338 A2.5,2.5 0 0 1 304,411.4338 L304,192.0438 A2.5,2.5 0 0 1 306.5,189.5438" fill="#E8FFE8" style="stroke:#000000;stroke-width:1.5;"/><line style="stroke:#000000;stroke-width:1.5;" x1="304" x2="448.1611" y1="211.8406" y2="211.8406"/><text fill="#000000" font-family="sans-serif" font-size="14" font-weight="700" lengthAdjust="spacing" textLength="131.1611" x="308" y="204.5389">Go &#1084;&#1080;&#1082;&#1088;&#1086;&#1089;&#1077;&#1088;&#1074;&#1080;&#1089;</text></g><!--entity app1c--><g class="entity" data-qualified-name="P1C.app1c" data-source-line="6" id="ent0003"><rect fill="#F1F1F1" height="36.2969" rx="2.5" ry="2.5" style="stroke:#181818;stroke-width:0.5;" width="107.3086" x="689.35" y="95.5938"/><text fill="#000000" font-family="sans-serif" font-size="14" lengthAdjust="spacing" textLength="87.3086" x="699.35" y="118.5889">&#1055;&#1088;&#1080;&#1082;&#1083;&#1072;&#1076; 1&#1057;</text></g><!--entity rest1c--><g class="entity" data-qualified-name="P1C.rest1c" data-source-line="7" id="ent0004"><rect fill="#F1F1F1" height="36.2969" rx="2.5" ry="2.5" style="stroke:#181818;stroke-width:0.5;" width="228.9131" x="521.54" y="224.5438"/><text fill="#000000" font-family="sans-serif" font-size="14" lengthAdjust="spacing" textLength="208.9131" x="531.54" y="247.5389">HTTP 1&#1057; (REST, OData, HTTP)</text></g><!--entity db1c--><g class="entity" data-qualified-name="P1C.db1c" data-source-line="8" id="ent0005"><path d="M785.51,221.8938 C785.51,211.8938 850.9973,211.8938 850.9973,211.8938 C850.9973,211.8938 916.4846,211.8938 916.4846,221.8938 L916.4846,263.4875 C916.4846,273.4875 850.9973,273.4875 850.9973,273.4875 C850.9973,273.4875 785.51,273.4875 785.51,263.4875 L785.51,221.8938" fill="#F1F1F1" style="stroke:#181818;stroke-width:0.5;"/><path d="M785.51,221.8938 C785.51,231.8938 850.9973,231.8938 850.9973,231.8938 C850.9973,231.8938 916.4846,231.8938 916.4846,221.8938" fill="none" style="stroke:#181818;stroke-width:0.5;"/><text fill="#000000" font-family="sans-serif" font-size="14" lengthAdjust="spacing" textLength="110.9746" x="795.51" y="248.8889">SQL Server / PG</text><text fill="#000000" font-family="sans-serif" font-size="14" lengthAdjust="spacing" textLength="86.4473" x="795.51" y="265.1857">(&#1041;&#1044; &#1087;&#1086;&#1076; 1&#1057;)</text></g><!--entity mysql--><g class="entity" data-qualified-name="dbhost.mysql" data-source-line="14" id="ent0009"><path d="M32.33,485.0538 C32.33,475.0538 148.0033,475.0538 148.0033,475.0538 C148.0033,475.0538 263.6767,475.0538 263.6767,485.0538 L263.6767,526.6475 C263.6767,536.6475 148.0033,536.6475 148.0033,536.6475 C148.0033,536.6475 32.33,536.6475 32.33,526.6475 L32.33,485.0538" fill="#F1F1F1" style="stroke:#181818;stroke-width:0.5;"/><path d="M32.33,485.0538 C32.33,495.0538 148.0033,495.0538 148.0033,495.0538 C148.0033,495.0538 263.6767,495.0538 263.6767,485.0538" fill="none" style="stroke:#181818;stroke-width:0.5;"/><text fill="#000000" font-family="sans-serif" font-size="14" lengthAdjust="spacing" textLength="48.0703" x="42.33" y="512.0489">MySQL</text><text fill="#000000" font-family="sans-serif" font-size="14" lengthAdjust="spacing" textLength="211.3467" x="42.33" y="528.3457">(&#1082;&#1086;&#1087;&#1080;&#1103; / &#1074;&#1080;&#1090;&#1088;&#1080;&#1085;&#1072; - &#1091;&#1090;&#1086;&#1095;&#1085;&#1080;&#1090;&#1100;)</text></g><!--entity bash--><g class="entity" data-qualified-name="dbhost.bash" data-source-line="15" id="ent0010"><path d="M50.91,355.9838 L50.91,403.5775 A2.5,2.5 0 0 0 53.41,406.0775 L242.5897,406.0775 A2.5,2.5 0 0 0 245.0897,403.5775 L245.0897,363.4838 L235.0897,353.4838 L53.41,353.4838 A2.5,2.5 0 0 0 50.91,355.9838" fill="#F1F1F1" style="stroke:#181818;stroke-width:0.5;"/><path d="M235.0897,353.4838 L235.0897,360.9838 A2.5,2.5 0 0 0 237.5897,363.4838 L245.0897,363.4838" fill="#F1F1F1" style="stroke:#181818;stroke-width:0.5;"/><text fill="#000000" font-family="sans-serif" font-size="14" lengthAdjust="spacing" textLength="34.3506" x="60.91" y="376.4789">Bash</text><text fill="#000000" font-family="sans-serif" font-size="14" lengthAdjust="spacing" textLength="174.1797" x="60.91" y="392.7757">(&#1087;&#1088;&#1103;&#1084;&#1086;&#1081; SQL / &#1091;&#1090;&#1080;&#1083;&#1080;&#1090;&#1099;)</text></g><!--entity gapi--><g class="entity" data-qualified-name="goapp.gapi" data-source-line="20" id="ent0013"><rect fill="#F1F1F1" height="36.2969" rx="2.5" ry="2.5" style="stroke:#181818;stroke-width:0.5;" width="113.7822" x="336.11" y="361.6338"/><text fill="#000000" font-family="sans-serif" font-size="14" lengthAdjust="spacing" textLength="93.7822" x="346.11" y="384.6289">API + &#1083;&#1086;&#1075;&#1080;&#1082;&#1072;</text></g><!--entity ui--><g class="entity" data-qualified-name="goapp.ui" data-source-line="21" id="ent0014"><rect fill="#F1F1F1" height="36.2969" rx="2.5" ry="2.5" style="stroke:#181818;stroke-width:0.5;" width="145.4326" x="320.28" y="224.5438"/><text fill="#000000" font-family="sans-serif" font-size="14" lengthAdjust="spacing" textLength="125.4326" x="330.28" y="247.5389">Web UI, &#1092;&#1080;&#1083;&#1100;&#1090;&#1088;&#1099;</text></g><!--entity op--><g class="entity" data-qualified-name="op" data-source-line="25" id="ent0017"><ellipse cx="392.9997" cy="84.0938" fill="#F1F1F1" rx="8" ry="8" style="stroke:#181818;stroke-width:0.5;"/><path d="M392.9997,92.0938 L392.9997,119.0938 M379.9997,100.0938 L405.9997,100.0938 M392.9997,119.0938 L379.9997,134.0938 M392.9997,119.0938 L405.9997,134.0938" fill="none" style="stroke:#181818;stroke-width:0.5;"/><text fill="#000000" font-family="sans-serif" font-size="14" lengthAdjust="spacing" textLength="71.8594" x="357.07" y="148.5889">&#1054;&#1087;&#1077;&#1088;&#1072;&#1090;&#1086;&#1088;</text></g><g class="entity" data-qualified-name="GMN24" data-source-line="34" id="ent0025"><path d="M498.37,344.5138 L498.37,382.6438 L450.38,386.6438 L498.37,390.6438 L498.37,415.045 A0,0 0 0 0 498.37,415.045 L699.6307,415.045 A0,0 0 0 0 699.6307,415.045 L699.6307,354.5138 L689.6307,344.5138 L498.37,344.5138 A0,0 0 0 0 498.37,344.5138" fill="#FEFFDD" style="stroke:#181818;stroke-width:0.5;"/><path d="M689.6307,344.5138 L689.6307,354.5138 L699.6307,354.5138 L689.6307,344.5138" fill="#FEFFDD" style="stroke:#181818;stroke-width:0.5;"/><text fill="#000000" font-family="sans-serif" font-size="13" font-weight="700" lengthAdjust="spacing" textLength="180.2607" x="504.37" y="361.5806">&#1047;&#1072;&#1095;&#1077;&#1084; &#1084;&#1080;&#1084;&#1086; 1&#1057;-&#1082;&#1083;&#1080;&#1077;&#1085;&#1090;&#1072;</text><text fill="#000000" font-family="sans-serif" font-size="13" lengthAdjust="spacing" textLength="174.8018" x="504.37" y="376.7135">- &#1085;&#1077;&#1090; RDP, &#1090;&#1103;&#1078;&#1077;&#1083;&#1099;&#1093; &#1092;&#1086;&#1088;&#1084;</text><text fill="#000000" font-family="sans-serif" font-size="13" lengthAdjust="spacing" textLength="127.1436" x="504.37" y="391.8463">- &#1087;&#1091;&#1090;&#1100;: HTTP + SQL</text><text fill="#000000" font-family="sans-serif" font-size="13" lengthAdjust="spacing" textLength="175.1826" x="504.37" y="406.9791">- UI &#1085;&#1072; Go: &#1075;&#1080;&#1073;&#1082;&#1080;&#1077; &#1086;&#1090;&#1073;&#1086;&#1088;&#1099;</text></g><!--link app1c to rest1c--><g class="link" data-entity-1="ent0003" data-entity-2="ent0004" data-link-type="association" data-source-line="9" id="lnk6"><path d="M719.9,132.2238 C719.9,156.7338 719.9,199.7538 719.9,224.2538" fill="none" id="app1c-rest1c" style="stroke:#181818;stroke-width:1;"/></g><!--link app1c to db1c--><g class="link" data-entity-1="ent0003" data-entity-2="ent0005" data-link-type="association" data-source-line="10" id="lnk7"><path d="M791.08,132.2238 C791.08,152.9738 791.08,186.9938 791.08,211.8038" fill="none" id="app1c-db1c" style="stroke:#181818;stroke-width:1;"/></g><!--link bash to mysql--><g class="link" data-entity-1="ent0010" data-entity-2="ent0009" data-link-type="association" data-source-line="16" id="lnk11"><path d="M115.64,406.5238 C115.64,426.4638 115.64,453.7738 115.64,474.7038" fill="none" id="bash-mysql" style="stroke:#181818;stroke-width:1;"/><text fill="#000000" font-family="sans-serif" font-size="13" lengthAdjust="spacing" textLength="66.625" x="48.64" y="436.6806">read/write</text></g><!--link bash to mysql--><g class="link" data-entity-1="ent0010" data-entity-2="ent0009" data-link-type="association" data-source-line="31" id="lnk23"><path d="M180.36,406.5238 C180.36,426.4638 180.36,453.7738 180.36,474.7038" fill="none" id="bash-mysql-1" style="stroke:#181818;stroke-width:1;stroke-dasharray:7,7;"/></g><!--link ui to gapi--><g class="link" data-entity-1="ent0014" data-entity-2="ent0013" data-link-type="association" data-source-line="22" id="lnk16"><path d="M393,261.1838 C393,287.3438 393,334.9038 393,361.1538" fill="none" id="ui-gapi" style="stroke:#181818;stroke-width:1;"/></g><!--link op to ui--><g class="link" data-entity-1="ent0017" data-entity-2="ent0014" data-link-type="association" data-source-line="27" id="lnk18"><path d="M393,152.0838 C393,175.8438 393,205.2938 393,224.0438" fill="none" id="op-ui" style="stroke:#181818;stroke-width:1;"/><text fill="#000000" font-family="sans-serif" font-size="13" lengthAdjust="spacing" textLength="55.0913" x="337" y="184.1306">&#1073;&#1088;&#1072;&#1091;&#1079;&#1077;&#1088;</text></g><!--link rest1c to gapi--><g class="link" data-entity-1="ent0004" data-entity-2="ent0013" data-link-type="association" data-source-line="28" id="lnk20"><path d="M521.29,243.6438 C498.82,243.6438 482.04,243.6438 482.04,243.6438 C482.04,243.6438 482.04,374.6438 482.04,374.6438 C482.04,374.6438 467.49,374.6438 450.15,374.6438" fill="none" id="rest1c-gapi" style="stroke:#181818;stroke-width:1;"/><text fill="#000000" font-family="sans-serif" font-size="13" lengthAdjust="spacing" textLength="129.4287" x="352.04" y="301.5306">HTTP &#1087;&#1086; &#1082;&#1086;&#1085;&#1090;&#1088;&#1072;&#1082;&#1090;&#1091;</text></g><!--link gapi to mysql--><g class="link" data-entity-1="ent0013" data-entity-2="ent0009" data-link-type="association" data-source-line="29" id="lnk21"><path d="M335.82,386.6438 C297.63,386.6438 254.38,386.6438 254.38,386.6438 C254.38,386.6438 254.38,439.5238 254.38,474.8438" fill="none" id="gapi-mysql" style="stroke:#181818;stroke-width:1;"/><text fill="#000000" font-family="sans-serif" font-size="13" lengthAdjust="spacing" textLength="69.4814" x="255.38" y="403.0906">&#1085;&#1072;&#1087;&#1088;&#1103;&#1084;&#1091;&#1102;</text></g><!--link gapi to bash--><g class="link" data-entity-1="ent0013" data-entity-2="ent0010" data-link-type="dependency" data-source-line="30" id="lnk22"><path d="M335.87,374.6438 C309,374.6438 282.2,374.6438 251.58,374.6438" fill="none" id="gapi-to-bash" style="stroke:#181818;stroke-width:1;stroke-dasharray:7,7;"/><polygon fill="#181818" points="245.58,374.6438,254.58,378.6438,250.58,374.6438,254.58,370.6438,245.58,374.6438" style="stroke:#181818;stroke-width:1;"/><text fill="#000000" font-family="sans-serif" font-size="13" lengthAdjust="spacing" textLength="88.1118" x="246.72" y="387.7106">&#1086;&#1088;&#1082;&#1077;&#1089;&#1090;&#1088;&#1072;&#1094;&#1080;&#1103;</text></g><?plantuml-src TLPDQnjN5DtFhxWuYyH8CyQb1LSaXZQnN4D3rDYXYwQBaJInHEoPYJIgCQKWoubRa8X92JI4z2ERxWeZnQh7aYNzXVV-Gdz9pxrl9efQx8MacNU_phddtkVhf7vNGzrM0nNhKz97keE7M4rKeazKNE0t_7okZqcDr5HTgXa-9sge9Z3jEgH-LKDI0_Q4tK2DzIaEUkHx1w6xw-48CN1o2JSOJf3dHpoErPJWCOLzZmF3YA9wjESvLlDntG_TXhjFUtNVYmv3Zu96L0iiEIVrYbEZW7TS6QfCz6c1r4otzQbakQ2xXzjVVPcd-nlRExIgtkO9xnCrWlqKjHYu2H9k1W_z6_3ewsVuFCiAEfBlToWAbOtXAM1LpB6MwP_sIre5xjTinMN3QAWkBQlXLIBNtqM9Io1rZDew-Yaojf5TV9V8RL9fzJPTsrWhVbmiqlSMqO8NR1F96QEQpCCDmzNAekKNEpibFgSRZ35Fz-wuaPidVhqiFWsl6ObJ5GTbjmaVK4BRNkCxhq4hLDfav2_KIv9-IZBZMIsBdoGbkneS-FOysi9RiVp1iloWoiN_hDuWy7j-ySdaI2lImBMW6T6rOh6ujh4csEV5YHcNn1gRSKiHIxhK4KuW6x997pFdqCz43dgcult3vfCzH7jKPse-Tvir3lIX7XZwYl5EkA6iNEEBx3MuyXVPZVfkBR9DF2e0jLjTEMZK8uzHXcxbCUjvQJEuGauIS3S0HzBWOWhoWxPzLjgY7B7seIvkT6nytB2-QFYrLwO7Mtc2VXAU46P1TyMunQRiGNOhjFaHnRcLA6YW1x-1kw6C1VFK5eSWjAmWp9hMgWCP1Cysn-gShQrvDDDeM8Z0M1fcwYVfMXZX-pYrD_4oihX36USW-hanSeHIPzqG32kU1enBjcVCz5fowZXf9o6eo2FnfE1HnixDyhhwHPO7Xirq0CrbtTgBKtfpfRmEUvjB6keEtRzJ0f4T5FOtJCQwgvzHDfV6RiRAqBqKTOxb8WSFjWGMrWGgvuRraIdXBJP5eZw7q5tBywl45QDki_8MDW593xO_4jtZpu33gzltxfPIM6-5su7PgfA0vq2WoYuQoFk9cYwds6uj_gLXNizPCBjXlivqLrrapi87EXyBxYCroWCe5ZqJoyhaR2DPsoVuDPDvGykkIfijsJGwTifGdVz_axAQ6GAfCvuMz6AAB6OvemxkI_ghBp16xyLnHLxP66WMnZ4dyieAU2Fh8c4Pib1cwPWoD033ulw3XvKX_cT5y6KdrVBgFX8cOhdAiCPGw9Mylp8Wi_n_cOcHkvBtcDoBbtbMq1bhfuzcZ1Tk5kaM29ULWkNaf99KYSC1_vJ63777Tk4lh3nbvHKe_FGJCwGW-aH44ai4W7BckeJux6zgzMhLyxyrihEkuoPuqlByYbSmOZwJqUYX6YY5noDM5wYocLevOMj_JmILg9aCbbYVoxyCm3dKFwLSfJEGgmJxOU1xVfJBOYp_2m00?></g></svg>